<?xml version="1.0" standalone="no"?>
<!DOCTYPE svg PUBLIC "-//W3C//DTD SVG 20010904//EN"
 "http://www.w3.org/TR/2001/REC-SVG-20010904/DTD/svg10.dtd">
<svg version="1.0" xmlns="http://www.w3.org/2000/svg"
 width="400.000000pt" height="400.000000pt" viewBox="0 0 400.000000 400.000000"
 preserveAspectRatio="xMidYMid meet">
<metadata>
Created by potrace 1.14, written by Peter Selinger 2001-2017
</metadata>
<g transform="translate(0.000000,400.000000) scale(0.100000,-0.100000)"
fill="#000000" stroke="none">
<path d="M1828 3995 c-1 -1 -29 -5 -61 -9 -31 -3 -67 -8 -80 -11 -12 -2 -35
-7 -52 -9 -16 -3 -41 -7 -55 -11 -14 -3 -37 -7 -52 -10 -42 -8 -184 -54 -273
-88 -187 -73 -461 -239 -585 -357 -9 -8 -42 -39 -73 -68 -31 -29 -57 -55 -57
-58 0 -3 -12 -17 -28 -32 -61 -62 -129 -149 -200 -256 -56 -85 -182 -332 -182
-357 0 -8 -7 -25 -16 -37 -8 -12 -13 -22 -9 -22 3 0 -1 -13 -10 -30 -9 -16
-13 -30 -11 -30 3 0 -2 -16 -10 -35 -8 -19 -14 -36 -13 -37 1 -2 -4 -22 -10
-45 -39 -145 -49 -248 -49 -498 0 -254 2 -273 52 -500 17 -75 87 -260 141
-370 73 -148 146 -263 251 -395 20 -25 238 -244 264 -265 14 -11 43 -34 65
-50 22 -16 42 -32 45 -35 12 -13 171 -111 240 -147 114 -60 299 -135 363 -148
9 -2 21 -6 25 -9 5 -3 19 -7 33 -10 13 -2 47 -10 74 -16 146 -34 251 -45 445
-45 152 0 252 6 311 19 13 3 38 8 54 10 17 3 41 7 55 11 14 3 38 8 53 10 102
19 352 115 487 188 70 38 241 148 266 171 7 6 31 26 55 45 44 35 222 211 269
266 41 48 122 164 172 245 37 60 128 236 133 260 1 3 7 19 14 35 16 39 71 204
77 230 2 11 6 31 9 45 40 177 44 215 43 460 0 243 -7 314 -46 480 -38 158
-146 419 -226 545 -18 28 -35 58 -39 68 -3 9 -11 17 -17 17 -5 0 -10 6 -10 14
0 8 -7 22 -16 31 -9 8 -37 44 -62 78 -59 80 -258 279 -342 340 -36 27 -73 54
-82 62 -31 25 -212 131 -280 163 -116 55 -256 109 -295 113 -5 1 -15 5 -24 10
-9 4 -27 10 -40 13 -13 3 -67 14 -119 25 -52 11 -117 23 -145 26 -51 7 -421
16 -427 10z"/>
</g>
</svg>
